<svg viewBox="0 0 1359.3006 2309.2599" xmlns="http://www.w3.org/2000/svg"><path d="M640 384q-66 0-113 47t-47 113 47 113 113 47 113-47 47-113-47-113-113-47zM275 2000l169-277q28-46 42-92l58-192 175 183 153 367q11 27 34.5 43t53.5 16q40 0 68-28t28-68q0-17-7-36l-140-345q-13-33-20.5-44.5T855 1487l-197-212 60-282 56 109q16 34 44 49 6 3 207 105 48 24 63 24 28 0 46-18t18-46q0-41-38-61l-229-122-90-206q-25-55-66-60l-229-26q-32-3-86 19l-242 96q-20 8-39 27t-25 39Q29 1126 4 1194q-4 9-4 22 0 26 19 45t45 19q20 0 40.5-9.5T131 1246l102-268 210-79-147 687-188 320q-12 23-12 46 0 40 28 68t68 28q54 0 83-48z"/></svg>