<svg height="15" viewBox="0 0 15 15" width="15" xmlns="http://www.w3.org/2000/svg"><path d="m10.1113 2c-.1124 0-.4355.1465-.4355.1465l-3.3223 1.6797c-.4424.1762-.6177.8819-.3515 1.2343l.9707 1.4082-3.9707 2.0293 1.998 1.5 2.502-1.5 2.5 1.5 1.002-1.002-3-4 2.5566-1.5293c.5286-.2662.4434-.7045.4434-.9707-.0041-.2099-.3603-.496-.8927-.496zm2.1407 3c-.9673 0-1.752.7827-1.752 1.75s.7847 1.752 1.752 1.752 1.75-.7847 1.75-1.752-.7828-1.75-1.75-1.75zm-9.752 5-2.5 1.5v1.5l2.5-1.5 2.5 1.5 2.502-1.5 2.5 1.5 1.998-1.5 3 1.5v-1.5l-3-1.5-1.998 1.5-2.5-1.5-2.502 1.5z"/></svg>