<svg fill="none" height="24" viewBox="0 0 24 24" width="24" xmlns="http://www.w3.org/2000/svg"><g stroke="#141b34" stroke-width="1.5"><path d="m7.88598 10c.68575 1.3968 1.41844 2.7049 1.24922 4.3142-.27052 2.5727-3.39008 3.541-5.38498 4.7262-1.30697.7765-.81832 2.9596.7856 2.9596 1.94465 0 3.68025-.1552 5.43478-.9799l3.4405-2.1173c.4776-.2245 1.0802-.1288 1.5889.0972" stroke-linecap="round" stroke-linejoin="round"/><path d="m16.0105 10c-.7003 1.3968-1.4485 2.7049-1.2757 4.3142.2763 2.5727 3.4619 3.541 5.4991 4.7262 1.3346.7765.8356 2.9596-.8023 2.9596-1.9858 0-3.7582-.1552-5.5499-.9799l-3.5134-2.1173c-.41011-.1888-.91053-.1511-1.3683 0" stroke-linecap="round" stroke-linejoin="round"/><path d="m10 4c0 1.10457.8954 2 2 2s2-.89543 2-2-.8954-2-2-2-2 .89543-2 2z"/><path d="m3 16c2.44586 0 3.54368-2.7051 3.89335-4.5709.09128-.487.23911-.9726.5629-1.3477 1.10026-1.27466 2.72775-2.0814 4.54375-2.0814s3.4435.80674 4.5437 2.0814c.3238.3751.4717.8607.563 1.3477.3496 1.8658 1.4474 4.5709 3.8933 4.5709" stroke-linecap="round" stroke-linejoin="round"/></g></svg>